<?xml version="1.0" encoding="UTF-8"?>
<svg xmlns="http://www.w3.org/2000/svg" viewBox="0 0 1024 1024">
  <defs>
    <style>
      .cls-1 { fill: #fff; }
    </style>
  </defs>
  <g>
    <path class="cls-1" d="M475.56,112.12h-39.37c-45.43,0-83.73,33.85-89.32,78.93l-4.84,39.07-66.5,536.69c-1.86,15.03-14.63,26.31-29.77,26.31h-65.99c-15.14,0-27.91,11.28-29.77,26.31l-9.69,78.21c-.89,7.16,4.7,13.48,11.91,13.48h144.8c45.43,0,83.73-33.85,89.32-78.93l4.84-39.07,66.5-536.69c1.86-15.03,14.63-26.31,29.77-26.31h66.15c15.14,0,27.91-11.28,29.77-26.31l9.69-78.21c.89-7.16-4.7-13.48-11.91-13.48h-105.6Z"/>
    <g>
      <path class="cls-1" d="M828.7,453.12h-143.76c-45.43,0-83.73,33.85-89.32,78.93l-29.09,234.76c-1.86,15.03-14.63,26.31-29.77,26.31h-57.99c-15.14,0-27.91,11.28-29.77,26.31l-9.69,78.21c-.89,7.16,4.7,13.48,11.91,13.48h136.8c45.43,0,83.73-33.85,89.32-78.93l4.84-39.07,24.25-195.69c1.86-15.03,14.63-26.31,29.77-26.31h64.95c15.14,0,27.91-11.28,29.77-26.31l9.69-78.21c.89-7.16-4.7-13.48-11.91-13.48Z"/>
      <path class="cls-1" d="M872.16,112.12h-144.97c-45.43,0-83.73,33.85-89.32,78.93l-4.84,39.07-18.65,150.52c-.89,7.16,4.7,13.48,11.91,13.48h78.81c15.14,0,27.91-11.28,29.77-26.31l13.8-111.38c1.86-15.03,14.63-26.31,29.77-26.31h66.15c15.14,0,27.91-11.28,29.77-26.31l9.69-78.21c.89-7.16-4.7-13.48-11.91-13.48Z"/>
    </g>
  </g>
</svg>
